HIERARCHY
ROOT Hip
{
	OFFSET -0.168744 0.033018 0.146345
	CHANNELS 6 Xposition Yposition Zposition Xrotation Yrotation Zrotation
	JOINT LowerSpine
	{
		OFFSET -0.000000 0.154692 0.259874
		CHANNELS 6 Xposition Yposition Zposition Xrotation Yrotation Zrotation
		JOINT MiddleSpine
		{
			OFFSET 0.000000 -0.011152 0.237154
			CHANNELS 3 Xrotation Yrotation Zrotation
			JOINT Chest
			{
				OFFSET -0.000000 0.058786 0.293448
				CHANNELS 3 Xrotation Yrotation Zrotation
				JOINT Neck
				{
					OFFSET -0.000000 0.012376 0.661278
					CHANNELS 6 Xposition Yposition Zposition Xrotation Yrotation Zrotation
					JOINT Head
					{
						OFFSET -0.000003 -0.101573 0.373433
						CHANNELS 3 Xrotation Yrotation Zrotation
						End Site
						{
							OFFSET 0.000000 -0.001601 0.053629
						}
					}
				}
				JOINT LClavicle
				{
					OFFSET 0.060085 -0.196776 0.638168
					CHANNELS 6 Xposition Yposition Zposition Xrotation Yrotation Zrotation
					JOINT LShoulder
					{
						OFFSET 0.351028 0.148114 0.091535
						CHANNELS 3 Xrotation Yrotation Zrotation
						JOINT LForearm
						{
							OFFSET 0.828500 0.007179 -0.002937
							CHANNELS 3 Xrotation Yrotation Zrotation
							JOINT LHand
							{
								OFFSET 0.691143 0.004141 0.002005
								CHANNELS 3 Xrotation Yrotation Zrotation
								JOINT LFinger1
								{
									OFFSET 0.267868 -0.074399 0.023428
									CHANNELS 6 Xposition Yposition Zposition Xrotation Yrotation Zrotation
									JOINT LFinger11
									{
										OFFSET 0.100195 -0.017654 -0.024433
										CHANNELS 3 Xrotation Yrotation Zrotation
										JOINT LFinger12
										{
											OFFSET 0.068401 -0.012057 -0.016682
											CHANNELS 3 Xrotation Yrotation Zrotation
											End Site
											{
												OFFSET 0.050801 -0.008241 -0.015164
											}
										}
									}
								}
								JOINT LFinger2
								{
									OFFSET 0.271866 -0.006476 0.027054
									CHANNELS 6 Xposition Yposition Zposition Xrotation Yrotation Zrotation
									JOINT LFinger21
									{
										OFFSET 0.123886 0.000731 0.000344
										CHANNELS 3 Xrotation Yrotation Zrotation
										JOINT LFinger22
										{
											OFFSET 0.068670 0.000417 0.000210
											CHANNELS 3 Xrotation Yrotation Zrotation
											End Site
											{
												OFFSET 0.053519 -0.000073 -0.003780
											}
										}
									}
								}
								JOINT LFinger3
								{
									OFFSET 0.257650 0.060956 0.018054
									CHANNELS 6 Xposition Yposition Zposition Xrotation Yrotation Zrotation
									JOINT LFinger31
									{
										OFFSET 0.112414 0.007039 -0.005692
										CHANNELS 3 Xrotation Yrotation Zrotation
										JOINT LFinger32
										{
											OFFSET 0.064059 0.004024 -0.003223
											CHANNELS 3 Xrotation Yrotation Zrotation
											End Site
											{
												OFFSET 0.053193 0.002514 -0.006540
											}
										}
									}
								}
								JOINT LFinger4
								{
									OFFSET 0.239089 0.105269 -0.018169
									CHANNELS 6 Xposition Yposition Zposition Xrotation Yrotation Zrotation
									JOINT LFinger41
									{
										OFFSET 0.069146 0.019088 -0.014420
										CHANNELS 3 Xrotation Yrotation Zrotation
										JOINT LFinger42
										{
											OFFSET 0.050705 0.014006 -0.010559
											CHANNELS 3 Xrotation Yrotation Zrotation
											End Site
											{
												OFFSET 0.050514 0.011591 -0.013879
											}
										}
									}
								}
								JOINT LFinger0
								{
									OFFSET 0.055412 -0.042008 -0.041941
									CHANNELS 6 Xposition Yposition Zposition Xrotation Yrotation Zrotation
									JOINT LFinger01
									{
										OFFSET 0.103169 -0.077784 -0.033880
										CHANNELS 3 Xrotation Yrotation Zrotation
										JOINT LFinger02
										{
											OFFSET 0.067934 -0.048944 -0.024309
											CHANNELS 3 Xrotation Yrotation Zrotation
											End Site
											{
												OFFSET 0.042584 -0.029159 -0.014660
											}
										}
									}
								}
							}
						}
					}
				}
				JOINT RClavicle
				{
					OFFSET -0.060085 -0.196776 0.638168
					CHANNELS 6 Xposition Yposition Zposition Xrotation Yrotation Zrotation
					JOINT RShoulder
					{
						OFFSET -0.351089 0.148139 0.091552
						CHANNELS 3 Xrotation Yrotation Zrotation
						JOINT RForearm
						{
							OFFSET -0.828500 0.007179 -0.002937
							CHANNELS 3 Xrotation Yrotation Zrotation
							JOINT RHand
							{
								OFFSET -0.691144 0.004141 0.002005
								CHANNELS 3 Xrotation Yrotation Zrotation
								JOINT RFinger1
								{
									OFFSET -0.267870 -0.074399 0.023430
									CHANNELS 6 Xposition Yposition Zposition Xrotation Yrotation Zrotation
									JOINT RFinger11
									{
										OFFSET -0.100195 -0.017654 -0.024433
										CHANNELS 3 Xrotation Yrotation Zrotation
										JOINT RFinger12
										{
											OFFSET -0.068401 -0.012057 -0.016688
											CHANNELS 3 Xrotation Yrotation Zrotation
											End Site
											{
												OFFSET -0.050801 -0.008241 -0.015164
											}
										}
									}
								}
								JOINT RFinger2
								{
									OFFSET -0.271866 -0.006479 0.027054
									CHANNELS 6 Xposition Yposition Zposition Xrotation Yrotation Zrotation
									JOINT RFinger21
									{
										OFFSET -0.123886 0.000731 0.000347
										CHANNELS 3 Xrotation Yrotation Zrotation
										JOINT RFinger22
										{
											OFFSET -0.068670 0.000420 0.000210
											CHANNELS 3 Xrotation Yrotation Zrotation
											End Site
											{
												OFFSET -0.053519 -0.000073 -0.003780
											}
										}
									}
								}
								JOINT RFinger3
								{
									OFFSET -0.257650 0.060956 0.018057
									CHANNELS 6 Xposition Yposition Zposition Xrotation Yrotation Zrotation
									JOINT RFinger31
									{
										OFFSET -0.112414 0.007039 -0.005692
										CHANNELS 3 Xrotation Yrotation Zrotation
										JOINT RFinger32
										{
											OFFSET -0.064061 0.004024 -0.003223
											CHANNELS 3 Xrotation Yrotation Zrotation
											End Site
											{
												OFFSET -0.053193 0.002514 -0.006540
											}
										}
									}
								}
								JOINT RFinger4
								{
									OFFSET -0.239089 0.105269 -0.018169
									CHANNELS 6 Xposition Yposition Zposition Xrotation Yrotation Zrotation
									JOINT RFinger41
									{
										OFFSET -0.069146 0.019088 -0.014420
										CHANNELS 3 Xrotation Yrotation Zrotation
										JOINT RFinger42
										{
											OFFSET -0.050705 0.014006 -0.010556
											CHANNELS 3 Xrotation Yrotation Zrotation
											End Site
											{
												OFFSET -0.050514 0.011591 -0.013879
											}
										}
									}
								}
								JOINT RFinger0
								{
									OFFSET -0.055412 -0.042006 -0.041938
									CHANNELS 6 Xposition Yposition Zposition Xrotation Yrotation Zrotation
									JOINT RFinger01
									{
										OFFSET -0.103169 -0.077787 -0.033886
										CHANNELS 3 Xrotation Yrotation Zrotation
										JOINT RFinger02
										{
											OFFSET -0.067934 -0.048944 -0.024307
											CHANNELS 3 Xrotation Yrotation Zrotation
											End Site
											{
												OFFSET -0.042585 -0.029159 -0.014659
											}
										}
									}
								}
							}
						}
					}
				}
			}
		}
	}
	JOINT RThigh
	{
		OFFSET -0.307261 0.025206 0.117468
		CHANNELS 6 Xposition Yposition Zposition Xrotation Yrotation Zrotation
		JOINT RShin
		{
			OFFSET -0.022246 0.000000 -1.209169
			CHANNELS 3 Xrotation Yrotation Zrotation
			JOINT RFoot
			{
				OFFSET 0.000000 0.000000 -1.187332
				CHANNELS 3 Xrotation Yrotation Zrotation
				JOINT RToe
				{
					OFFSET 0.000000 -0.272888 -0.130497
					CHANNELS 3 Xrotation Yrotation Zrotation
					End Site
					{
						OFFSET 0.000000 -0.053653 0.000000
					}
				}
			}
		}
	}
	JOINT LThigh
	{
		OFFSET 0.307258 0.025206 0.117477
		CHANNELS 6 Xposition Yposition Zposition Xrotation Yrotation Zrotation
		JOINT LShin
		{
			OFFSET 0.022246 0.000000 -1.209177
			CHANNELS 3 Xrotation Yrotation Zrotation
			JOINT LFoot
			{
				OFFSET -0.000000 0.000000 -1.187331
				CHANNELS 3 Xrotation Yrotation Zrotation
				JOINT LToe
				{
					OFFSET 0.000000 -0.272891 -0.130499
					CHANNELS 3 Xrotation Yrotation Zrotation
					End Site
					{
						OFFSET 0.000000 -0.053653 0.000000
					}
				}
			}
		}
	}
}
MOTION
Frames: 6
Frame Time: 0.041667
-0.640589 2.878873 2.122860 -10.128148 3.897776 165.016086 -0.000000 0.154692 0.259874 -0.000013 -0.000003 0.000002 -2.821818 0.002163 -2.420141 -9.396951 0.273260 -8.589148 -0.000000 0.012376 0.661279 -4.858874 9.109872 2.904212 1.521141 0.829885 0.017344 0.060085 -0.196776 0.638168 -0.296221 7.219953 -0.037834 13.672125 18.364603 -28.496483 0.150524 -0.057829 -56.827618 0.000003 -0.000012 0.000009 0.267868 -0.074398 0.023427 -0.000006 -0.000004 -0.000021 -0.000001 0.000004 0.000006 -0.000000 0.000005 -0.000013 0.271865 -0.006476 0.027053 -0.000004 -0.000006 -0.000015 0.000003 -0.000000 0.000000 -0.000001 -0.000003 -0.000008 0.257650 0.060956 0.018053 -0.000001 -0.000009 -0.000017 0.000006 -0.000002 0.000004 0.000000 0.000003 -0.000003 0.239089 0.105269 -0.018170 -0.000010 -0.000010 -0.000018 -0.000004 -0.000001 0.000009 0.000005 -0.000007 0.000007 0.055411 -0.042008 -0.041942 0.000010 -0.000011 -0.000012 -0.000006 0.000009 -0.000006 0.000007 -0.000005 0.000015 -0.060085 -0.196776 0.638168 1.196130 -15.023594 1.802219 -8.387313 -66.488442 -15.147659 0.051179 0.000164 16.027497 0.000002 0.000001 -0.000013 -0.267870 -0.074398 0.023430 -0.000000 0.000002 0.000009 -0.000000 0.000001 -0.000001 0.000001 -0.000003 -0.000010 -0.271866 -0.006479 0.027054 0.000005 -0.000002 0.000008 0.000003 0.000004 -0.000008 0.000000 -0.000001 0.000001 -0.257651 0.060956 0.018058 0.000005 0.000008 0.000009 -0.000000 0.000002 0.000004 0.000002 -0.000012 0.000005 -0.239090 0.105269 -0.018169 0.000004 0.000004 0.000011 -0.000002 -0.000006 0.000006 0.000003 0.000014 0.000007 -0.055412 -0.042005 -0.041939 0.000002 -0.000004 0.000002 -0.000003 0.000002 -0.000009 -0.000000 0.000000 -0.000005 -0.307253 0.025273 0.117874 -4.805774 9.544269 23.604166 42.268837 0.000007 0.000010 1.525040 -0.413809 0.893908 -42.213462 -0.000014 -0.000015 0.313289 0.084304 0.427590 -4.548846 7.592414 -0.865451 2.261643 -0.000049 0.000002 -0.710525 0.017107 -0.041108 0.000010 -0.000046 0.000005 
-0.640589 2.878873 2.122860 -10.128148 3.897776 165.016086 -0.000000 0.154692 0.259874 -0.000013 -0.000003 0.000002 -2.821818 0.002163 -2.420141 -9.396951 0.273260 -8.589148 -0.000000 0.012376 0.661279 -4.858874 9.109872 2.904212 1.521141 0.829885 0.017344 0.060085 -0.196776 0.638168 -0.296221 7.219953 -0.037834 13.672125 18.364603 -28.496483 0.150524 -0.057829 -56.827618 0.000003 -0.000012 0.000009 0.267868 -0.074398 0.023427 -0.000006 -0.000004 -0.000021 -0.000001 0.000004 0.000006 -0.000000 0.000005 -0.000013 0.271865 -0.006476 0.027053 -0.000004 -0.000006 -0.000015 0.000003 -0.000000 0.000000 -0.000001 -0.000003 -0.000008 0.257650 0.060956 0.018053 -0.000001 -0.000009 -0.000017 0.000006 -0.000002 0.000004 0.000000 0.000003 -0.000003 0.239089 0.105269 -0.018170 -0.000010 -0.000010 -0.000018 -0.000004 -0.000001 0.000009 0.000005 -0.000007 0.000007 0.055411 -0.042008 -0.041942 0.000010 -0.000011 -0.000012 -0.000006 0.000009 -0.000006 0.000007 -0.000005 0.000015 -0.060085 -0.196776 0.638168 1.196130 -15.023594 1.802219 -8.387313 -66.488442 -15.147659 0.051179 0.000164 16.027497 0.000002 0.000001 -0.000013 -0.267870 -0.074398 0.023430 -0.000000 0.000002 0.000009 -0.000000 0.000001 -0.000001 0.000001 -0.000003 -0.000010 -0.271866 -0.006479 0.027054 0.000005 -0.000002 0.000008 0.000003 0.000004 -0.000008 0.000000 -0.000001 0.000001 -0.257651 0.060956 0.018058 0.000005 0.000008 0.000009 -0.000000 0.000002 0.000004 0.000002 -0.000012 0.000005 -0.239090 0.105269 -0.018169 0.000004 0.000004 0.000011 -0.000002 -0.000006 0.000006 0.000003 0.000014 0.000007 -0.055412 -0.042005 -0.041939 0.000002 -0.000004 0.000002 -0.000003 0.000002 -0.000009 -0.000000 0.000000 -0.000005 -0.307253 0.025273 0.117874 -4.805774 9.544269 23.604166 42.268837 0.000007 0.000010 1.525040 -0.413809 0.893908 -42.213462 -0.000014 -0.000015 0.313289 0.084304 0.427590 -4.548846 7.592414 -0.865451 2.261643 -0.000049 0.000002 -0.710525 0.017107 -0.041108 0.000010 -0.000046 0.000005 
-0.633121 2.867024 2.125259 -10.212498 3.639588 164.252990 0.000000 0.154691 0.259874 -0.000012 -0.000003 -0.000002 -2.794836 -0.016841 -2.307013 -9.321570 0.064506 -8.517524 -0.000000 0.012376 0.661279 -3.973843 8.951138 2.779848 0.776479 1.236126 0.025516 0.060085 -0.196776 0.638168 -0.415058 7.791993 -0.051190 13.854617 18.307053 -27.723063 0.150173 -0.056868 -56.580604 0.000000 -0.000012 0.000007 0.267868 -0.074399 0.023427 -0.000007 -0.000004 -0.000023 0.000002 0.000009 0.000002 -0.000000 0.000007 -0.000013 0.271866 -0.006476 0.027054 -0.000003 -0.000005 -0.000018 0.000001 0.000001 0.000002 0.000001 -0.000001 -0.000012 0.257651 0.060956 0.018054 -0.000000 -0.000008 -0.000019 0.000006 -0.000003 0.000007 0.000000 0.000002 -0.000008 0.239090 0.105269 -0.018170 -0.000011 -0.000010 -0.000019 -0.000002 0.000003 0.000005 0.000000 -0.000008 0.000009 0.055412 -0.042008 -0.041942 0.000012 -0.000009 -0.000015 -0.000004 0.000006 -0.000004 0.000006 -0.000006 0.000012 -0.060085 -0.196776 0.638167 1.676341 -14.803694 2.532179 -15.544013 -65.998540 -21.590534 0.051139 0.002354 16.253738 0.000003 -0.000001 -0.000015 -0.267870 -0.074399 0.023430 -0.000005 -0.000000 0.000007 0.000004 0.000003 -0.000003 0.000003 -0.000003 -0.000006 -0.271866 -0.006480 0.027054 -0.000000 -0.000004 0.000007 0.000005 0.000002 -0.000008 -0.000002 -0.000001 0.000000 -0.257650 0.060956 0.018058 -0.000001 0.000007 0.000007 0.000000 0.000002 0.000004 0.000005 -0.000011 0.000003 -0.239090 0.105269 -0.018169 -0.000001 0.000001 0.000009 0.000002 -0.000006 0.000006 -0.000007 0.000016 0.000009 -0.055411 -0.042006 -0.041939 -0.000003 -0.000005 0.000001 -0.000010 0.000003 -0.000007 0.000001 0.000003 -0.000011 -0.307231 0.025476 0.119096 -5.217226 9.416897 23.294072 42.222583 0.000009 0.000012 2.303679 -0.446061 0.982327 -42.708770 -0.000015 -0.000017 0.313218 0.084287 0.427553 -5.064733 7.076460 -1.560968 2.777037 -0.000049 0.000000 -0.717497 -0.102712 0.210948 0.000015 -0.000046 -0.000001 
-0.627603 2.859573 2.127517 -10.206743 3.569466 163.595967 0.000000 0.154692 0.259874 -0.000014 -0.000003 -0.000000 -2.776386 0.005014 -2.219603 -9.266723 0.023033 -8.442059 -0.000000 0.012376 0.661278 -3.661565 8.834820 2.717300 0.520857 1.335658 0.033100 0.060085 -0.196776 0.638168 -0.460572 7.987613 -0.056025 14.290882 18.647680 -27.473910 0.147224 -0.056618 -56.174665 -0.000000 -0.000011 0.000007 0.267867 -0.074399 0.023428 -0.000001 -0.000007 -0.000022 0.000001 0.000010 0.000001 -0.000000 0.000003 -0.000010 0.271866 -0.006477 0.027054 0.000001 -0.000004 -0.000016 0.000002 0.000001 0.000000 0.000000 -0.000002 -0.000011 0.257650 0.060956 0.018054 0.000003 -0.000010 -0.000017 0.000003 -0.000003 0.000004 0.000002 -0.000001 -0.000007 0.239090 0.105269 -0.018169 -0.000005 -0.000009 -0.000017 -0.000000 0.000003 0.000005 0.000002 -0.000002 0.000008 0.055411 -0.042009 -0.041941 0.000015 -0.000011 -0.000009 -0.000008 0.000005 -0.000003 0.000003 -0.000005 0.000013 -0.060086 -0.196775 0.638168 1.860757 -14.719870 2.812428 -16.114236 -66.063768 -21.721226 0.049593 0.001020 15.744891 0.000008 -0.000000 -0.000015 -0.267871 -0.074399 0.023430 -0.000008 -0.000000 0.000008 0.000004 0.000002 0.000000 0.000001 -0.000004 -0.000006 -0.271866 -0.006480 0.027054 -0.000005 -0.000003 0.000006 0.000003 0.000002 -0.000008 -0.000001 -0.000002 0.000000 -0.257650 0.060956 0.018057 -0.000007 0.000008 0.000008 0.000003 0.000002 0.000005 0.000003 -0.000011 0.000004 -0.239089 0.105268 -0.018169 -0.000006 0.000003 0.000011 -0.000000 -0.000006 0.000005 -0.000001 0.000014 0.000006 -0.055411 -0.042006 -0.041939 -0.000006 -0.000007 -0.000000 0.000002 0.000001 -0.000009 -0.000002 0.000001 -0.000009 -0.307193 0.025817 0.121136 -5.604913 9.359735 23.208882 42.302514 0.000008 0.000010 2.602326 -0.471294 1.046016 -42.776573 -0.000015 -0.000016 0.313096 0.084248 0.427444 -5.314833 6.803709 -1.798412 3.032067 -0.000049 0.000002 -0.736871 -0.239672 0.493948 0.000034 -0.000046 0.000004 
-0.622918 2.853906 2.129269 -10.151060 3.615230 162.818910 -0.000000 0.154692 0.259874 -0.000012 -0.000002 0.000001 -2.766508 0.041177 -2.132741 -9.232509 0.069422 -8.306764 0.000000 0.012376 0.661279 -3.636973 8.737022 2.684772 0.534553 1.339982 0.032875 0.060085 -0.196775 0.638168 -0.481576 8.072043 -0.058222 15.122083 19.659784 -27.623257 0.142921 -0.054450 -55.065733 0.000001 -0.000012 0.000008 0.267868 -0.074399 0.023426 -0.000004 -0.000003 -0.000021 0.000002 0.000004 0.000001 -0.000000 0.000009 -0.000019 0.271866 -0.006476 0.027053 -0.000006 -0.000003 -0.000015 -0.000002 -0.000002 0.000003 -0.000001 -0.000001 -0.000012 0.257651 0.060956 0.018053 -0.000001 -0.000007 -0.000016 0.000004 -0.000006 0.000004 0.000002 0.000002 -0.000006 0.239090 0.105269 -0.018170 -0.000008 -0.000005 -0.000014 -0.000003 0.000003 0.000008 0.000001 -0.000005 0.000010 0.055411 -0.042009 -0.041943 0.000013 -0.000009 -0.000014 -0.000008 0.000007 -0.000005 -0.000000 -0.000001 0.000011 -0.060085 -0.196775 0.638167 1.944806 -14.670094 2.940551 -14.563599 -66.367275 -19.909588 0.047486 -0.000397 15.187301 0.000000 0.000000 -0.000014 -0.267870 -0.074398 0.023430 -0.000004 0.000001 0.000009 -0.000000 0.000001 -0.000002 0.000001 -0.000004 -0.000010 -0.271866 -0.006479 0.027054 0.000003 -0.000004 0.000006 0.000001 0.000003 -0.000008 0.000000 -0.000000 0.000000 -0.257650 0.060956 0.018057 0.000005 0.000008 0.000007 -0.000002 0.000003 0.000004 0.000006 -0.000012 0.000005 -0.239089 0.105269 -0.018170 0.000004 0.000001 0.000007 -0.000001 -0.000006 0.000005 -0.000005 0.000017 0.000009 -0.055412 -0.042005 -0.041939 0.000002 -0.000006 -0.000002 -0.000007 0.000006 -0.000008 -0.000001 -0.000000 -0.000008 -0.307139 0.026295 0.123992 -6.052209 9.442772 23.135485 42.455185 0.000008 0.000011 2.629505 -0.501354 1.116011 -42.596034 -0.000015 -0.000016 0.312925 0.084172 0.427220 -5.350555 6.660916 -1.884418 3.010979 -0.000049 -0.000001 -0.625284 -0.447639 0.923299 0.000067 -0.000045 0.000005 
-0.618242 2.848107 2.130501 -10.122392 3.638839 162.163881 0.000000 0.154691 0.259874 -0.000011 -0.000002 -0.000001 -2.756023 0.081245 -2.037939 -9.190923 0.154349 -8.122193 -0.000000 0.012376 0.661279 -3.648147 8.622448 2.650140 0.549152 1.340604 0.032550 0.060085 -0.196775 0.638168 -0.497974 8.201038 -0.059718 16.447642 21.224927 -28.333144 0.138053 -0.049868 -52.881059 0.000003 -0.000007 0.000011 0.267868 -0.074399 0.023428 -0.000001 -0.000004 -0.000023 0.000002 0.000008 0.000001 0.000000 0.000006 -0.000014 0.271867 -0.006476 0.027054 -0.000002 0.000000 -0.000018 0.000003 0.000002 0.000001 -0.000003 -0.000001 -0.000009 0.257651 0.060956 0.018054 0.000000 -0.000007 -0.000018 0.000000 -0.000004 0.000005 -0.000005 0.000003 -0.000005 0.239089 0.105269 -0.018170 -0.000007 0.000000 -0.000017 -0.000006 0.000006 0.000009 0.000003 -0.000008 0.000007 0.055411 -0.042009 -0.041942 0.000013 -0.000005 -0.000018 -0.000009 0.000006 -0.000003 0.000003 -0.000003 0.000010 -0.060086 -0.196775 0.638167 2.044746 -14.609548 3.093044 -13.066269 -66.662933 -18.364299 0.045692 -0.000182 14.951156 0.000004 -0.000001 -0.000015 -0.267870 -0.074399 0.023430 -0.000003 0.000001 0.000010 -0.000001 0.000001 -0.000001 0.000001 -0.000002 -0.000007 -0.271866 -0.006479 0.027054 0.000004 -0.000001 0.000008 -0.000001 0.000003 -0.000008 0.000002 -0.000002 -0.000001 -0.257651 0.060956 0.018057 0.000004 0.000007 0.000008 0.000000 0.000001 0.000004 0.000003 -0.000011 0.000004 -0.239090 0.105269 -0.018169 -0.000001 0.000003 0.000009 -0.000002 -0.000006 0.000006 -0.000007 0.000016 0.000005 -0.055412 -0.042006 -0.041939 0.000001 -0.000004 0.000001 -0.000006 0.000005 -0.000009 -0.000003 -0.000002 -0.000007 -0.307069 0.026909 0.127655 -6.395243 9.514896 23.021177 42.514410 0.000008 0.000010 2.374943 -0.552262 1.220603 -42.119584 -0.000014 -0.000016 0.312706 0.084045 0.426828 -5.379018 6.500735 -1.969587 2.947679 -0.000048 0.000003 -0.570289 -0.622831 1.285135 0.000109 -0.000045 0.000001 
